<?xml version="1.0" encoding="iso-8859-1"?>
<!-- Uploaded to: SVG Repo, www.svgrepo.com, Generator: SVG Repo Mixer Tools -->
<svg fill='#594b3b' height="800px" width="800px" version="1.1" id="Layer_1" xmlns="http://www.w3.org/2000/svg" xmlns:xlink="http://www.w3.org/1999/xlink" 
	 viewBox="0 0 502.4 502.4" xml:space="preserve">
<g>
	<g>
		<path d="M272,193.81v-13.867c0-11.733-9.6-21.333-21.333-21.333s-21.333,9.6-21.333,21.333v13.867
			c-106.667,11.733-188.8,108.8-188.8,226.133c0,11.733,9.601,21.333,21.334,21.333h377.6c11.733,0,21.333-9.6,21.333-21.333
			C460.8,301.543,378.666,205.543,272,193.81z M83.2,399.677c9.6-92.8,80-164.267,166.4-164.267s157.867,71.467,167.467,164.267
			H83.2z"/>
	</g>
</g>
<g>
	<g>
		<path d="M481.067,459.41H21.333C9.6,459.41,0,469.01,0,480.743s9.6,21.333,21.333,21.333H480c11.733,0,21.333-9.6,22.4-21.333
			C502.4,469.01,492.8,459.41,481.067,459.41z"/>
	</g>
</g>
<g>
	<g>
		<path d="M110.934,157.544c1.067-1.067,1.067-2.133,2.133-4.267c3.2-5.333,7.467-12.8,7.467-23.467c0-11.733-3.2-20.267-6.4-26.667
			c-5.333-12.8-12.8-21.333-21.333-24.533c-6.4-2.133-13.867-2.133-20.267,1.067c-9.6,5.333-14.933,17.067-9.6,27.733
			c3.2,6.399,8.533,10.666,13.866,11.733v1.067c1.067,2.133,3.2,6.4,3.2,7.467c0,1.067-2.133,4.267-3.2,6.4
			c-1.067,2.133-2.133,5.333-3.2,7.467c-8.533,20.267-6.4,46.933,5.333,64c4.267,6.4,10.667,9.6,17.067,9.6
			c3.2,0,7.467-1.067,11.733-4.267c9.6-6.4,11.733-19.2,5.333-28.8C108.8,175.677,107.734,165.01,110.934,157.544z"/>
	</g>
</g>
<g>
	<g>
		<path d="M266.667,80.743c1.067-1.067,1.067-3.2,2.133-4.267c3.2-5.333,7.467-12.8,7.467-23.467c0-11.733-3.2-20.267-6.4-26.667
			c-5.333-12.8-12.8-21.333-21.333-24.533c-6.4-2.133-13.867-2.133-20.267,1.067c-9.6,5.333-14.933,17.067-9.6,27.733
			c3.2,6.4,8.533,10.666,13.866,11.733c1.067,3.2,3.2,7.467,3.2,8.533c0,1.067-2.133,4.267-3.2,6.4
			c-1.067,2.133-2.133,5.333-3.2,7.467c-8.533,20.267-6.4,46.933,5.333,64c4.267,6.4,10.667,9.6,17.067,9.6
			c4.267,0,7.467-1.067,11.733-4.267c9.6-6.4,11.733-19.2,5.333-28.8C264.534,98.877,263.467,88.21,266.667,80.743z"/>
	</g>
</g>
<g>
	<g>
		<path d="M436.267,208.744c-5.333-5.333-8.533-19.2-8.533-35.2c0-6.4,1.067-13.867,1.067-20.267
			c1.067-11.733,2.133-23.467,1.067-35.2c-2.133-24.533-16-33.067-27.733-33.067c-11.733,0-21.333,9.6-21.333,21.333
			c0,6.4,2.133,11.733,6.4,16c0,9.599,0,19.2-1.067,28.799c-1.067,8.533-1.067,16-1.067,23.467c0,19.2,3.2,44.8,19.2,62.933
			c4.267,5.333,10.667,7.467,16,7.467c4.267,0,9.6-1.067,13.867-6.4C442.666,231.144,443.733,217.277,436.267,208.744z"/>
	</g>
</g>
</svg>